<svg height="50" viewBox="0 0 50 50" width="50" xmlns="http://www.w3.org/2000/svg" xmlns:xlink="http://www.w3.org/1999/xlink"><filter id="a" height="128.3%" width="128.3%" x="-9.1%" y="-9.1%"><feOffset dx="2" dy="2" in="SourceAlpha" result="shadowOffsetOuter1"/><feGaussianBlur in="shadowOffsetOuter1" result="shadowBlurOuter1" stdDeviation="2"/><feColorMatrix in="shadowBlurOuter1" result="shadowMatrixOuter1" type="matrix" values="0 0 0 0 0   0 0 0 0 0   0 0 0 0 0  0 0 0 0.1 0"/><feMerge><feMergeNode in="shadowMatrixOuter1"/><feMergeNode in="SourceGraphic"/></feMerge></filter><g fill="none" fill-rule="evenodd" filter="url(#a)" transform="translate(-220 -10)"><g transform="translate(222 12)"><circle cx="21" cy="21" fill="#fff" r="21"/><path d="m29.9946924 29.1076172-1.1124923-13.5769236c-.0241776-.3053906-.2877051-.54125-.6046821-.54125h-3.0323055v-1.0597561c0-1.6154297-1.3602922-2.9296875-3.0323054-2.9296875h-2.4258444c-1.6720133 0-3.0323055 1.3142578-3.0323055 2.9296875v1.0597561h-3.0323054c-.316977 0-.5805046.2358594-.6046822.54125l-1.1124518 13.5766892c-.0387731.4866016.1358473.9710547.4790638 1.3291406.3432166.358086.8298005.5634766 1.3349422.5634766h14.3612817c.5051417 0 .9916852-.2053516 1.3349422-.5634375.3432569-.3580859.5178773-.8425391.4791447-1.3289453zm-11.9946924-14.8576172c0-1.24065.80748-2.25 1.8-2.25h2.4c.99252 0 1.8 1.00935 1.8 2.25v.75h-6z" fill="#0ad4fa" fill-rule="nonzero"/></g></g></svg>