<svg height="34" viewBox="0 0 34 34" width="34" xmlns="http://www.w3.org/2000/svg" xmlns:xlink="http://www.w3.org/1999/xlink"><filter id="a" height="128.3%" width="128.3%" x="-9.1%" y="-9.1%"><feOffset dx="2" dy="2" in="SourceAlpha" result="shadowOffsetOuter1"/><feGaussianBlur in="shadowOffsetOuter1" result="shadowBlurOuter1" stdDeviation="2"/><feColorMatrix in="shadowBlurOuter1" result="shadowMatrixOuter1" type="matrix" values="0 0 0 0 0   0 0 0 0 0   0 0 0 0 0  0 0 0 0.1 0"/><feMerge><feMergeNode in="shadowMatrixOuter1"/><feMergeNode in="SourceGraphic"/></feMerge></filter><radialGradient id="b" cx="50%" cy="50%" r="68.628486%"><stop offset="0" stop-color="#ffcf00"/><stop offset="1" stop-color="#f7ae15"/></radialGradient><g fill="none" fill-rule="evenodd" filter="url(#a)" transform="translate(-177 -109)"><g transform="translate(179 111)"><circle cx="13" cy="13" fill="url(#b)" r="13"/><g fill="#f8b013" fill-rule="nonzero"><path d="m13 3.0952381c-5.45419643 0-9.9047619 4.45133928-9.9047619 9.9047619 0 5.4541964 4.45133928 9.9047619 9.9047619 9.9047619 5.4541964 0 9.9047619-4.4513393 9.9047619-9.9047619 0-5.45419643-4.4513393-9.9047619-9.9047619-9.9047619zm0 18.6488095c-4.82149107 0-8.74404762-3.9225565-8.74404762-8.7440476 0-4.82149107 3.92255655-8.74404762 8.74404762-8.74404762 4.8214911 0 8.7440476 3.92255655 8.7440476 8.74404762 0 4.8214911-3.9225565 8.7440476-8.7440476 8.7440476z"/><path d="m13 5.2962963c-4.23165231 0-7.7037037 3.47326984-7.7037037 7.7037037 0 4.2316523 3.47326984 7.7037037 7.7037037 7.7037037 4.2316523 0 7.7037037-3.4732698 7.7037037-7.7037037 0-4.23165231-3.4732698-7.7037037-7.7037037-7.7037037zm0 14.2282691c-3.59766893 0-6.52456538-2.9268965-6.52456538-6.5245654 0-3.59766893 2.92689645-6.52456538 6.52456538-6.52456538 3.5976689 0 6.5245654 2.92689645 6.5245654 6.52456538 0 3.5976689-2.9268965 6.5245654-6.5245654 6.5245654z"/></g></g></g></svg>