<?xml version="1.0" standalone="no"?>
<!DOCTYPE svg PUBLIC "-//W3C//DTD SVG 20010904//EN"
 "http://www.w3.org/TR/2001/REC-SVG-20010904/DTD/svg10.dtd">
<svg version="1.0" xmlns="http://www.w3.org/2000/svg"
 width="624.000000pt" height="624.000000pt" viewBox="0 0 624.000000 624.000000"
 preserveAspectRatio="xMidYMid meet">
<metadata>
Created by potrace 1.11, written by Peter Selinger 2001-2013
</metadata>
<g transform="translate(0.000000,624.000000) scale(0.100000,-0.100000)"
fill="#000000" stroke="none">
<path d="M4765 5986 c-11 -6 -56 -31 -100 -56 -44 -25 -88 -49 -97 -55 -9 -5
-35 -20 -58 -33 -23 -12 -118 -66 -213 -120 -467 -267 -566 -322 -575 -322 -6
0 -12 -4 -14 -9 -1 -4 -32 -24 -68 -43 -36 -19 -130 -72 -210 -118 -80 -45
-165 -94 -190 -108 -25 -13 -74 -42 -110 -62 -36 -21 -83 -48 -105 -60 -61
-34 -265 -150 -310 -176 -22 -13 -60 -33 -84 -46 -43 -23 -90 -69 -92 -91 0
-7 -2 -20 -4 -29 -2 -9 1 -34 5 -55 5 -21 11 -49 14 -63 2 -14 12 -61 21 -105
9 -44 19 -91 21 -105 3 -14 7 -33 10 -42 8 -26 15 -60 19 -93 5 -33 6 -41 29
-138 9 -37 18 -82 21 -100 3 -17 8 -40 11 -50 3 -11 7 -29 9 -40 1 -12 7 -42
13 -67 6 -24 9 -46 7 -49 -3 -2 0 -10 6 -18 6 -7 9 -13 6 -13 -3 0 1 -26 8
-58 8 -33 16 -70 19 -83 5 -27 36 -174 43 -204 8 -38 15 -70 19 -92 2 -13 6
-33 8 -45 2 -13 14 -66 25 -118 11 -52 22 -106 25 -120 2 -14 14 -68 26 -120
11 -52 23 -113 26 -135 3 -22 9 -45 15 -51 5 -6 7 -13 4 -15 -2 -3 0 -22 6
-44 5 -22 12 -56 15 -75 3 -19 9 -51 14 -70 5 -19 11 -46 14 -60 2 -14 7 -36
10 -50 3 -14 8 -36 10 -50 3 -14 21 -104 41 -200 21 -96 39 -186 41 -200 3
-14 9 -41 14 -60 5 -19 12 -51 15 -70 3 -19 10 -51 15 -70 8 -34 12 -55 25
-130 3 -19 8 -42 11 -50 3 -8 8 -28 11 -45 2 -16 11 -59 19 -95 9 -36 17 -78
19 -94 4 -28 21 -105 34 -156 15 -54 11 -60 -152 -229 -115 -118 -248 -207
-339 -227 -13 -3 -34 -7 -47 -10 -14 -3 -29 -8 -34 -11 -17 -11 -242 -12 -287
-2 -25 6 -56 13 -70 15 -48 9 -156 66 -225 119 -90 69 -155 139 -353 380 -10
11 -37 45 -62 75 -111 135 -368 380 -399 380 -4 0 -16 9 -26 20 -10 11 -24 20
-32 20 -7 0 -13 3 -13 8 0 4 -8 12 -19 17 -160 85 -304 149 -356 159 -5 1 -16
5 -22 9 -7 5 -13 6 -13 3 0 -3 -11 -1 -25 4 -14 5 -36 12 -48 14 -12 2 -60 11
-107 21 -105 20 -212 29 -355 30 -114 0 -154 -10 -201 -52 -25 -23 -68 -83
-58 -83 3 0 2 -6 -3 -12 -14 -19 -16 -81 -3 -127 13 -50 73 -115 125 -137 23
-9 79 -16 153 -19 160 -5 203 -11 377 -49 36 -8 155 -52 207 -78 183 -88 358
-245 553 -493 22 -27 42 -52 45 -55 3 -3 37 -43 76 -90 92 -110 175 -194 255
-259 35 -28 70 -56 77 -62 25 -20 163 -99 173 -99 6 0 23 -6 37 -14 39 -21
136 -51 217 -67 104 -21 379 -18 480 5 298 65 474 180 760 496 28 31 85 94
127 140 42 47 85 94 95 106 10 12 52 58 93 104 41 45 84 92 95 104 57 64 164
182 190 210 40 43 172 190 221 246 21 24 46 51 54 60 12 13 156 171 195 214 6
6 48 54 95 106 83 92 134 149 195 216 17 18 59 65 95 105 36 40 85 95 110 122
25 28 68 76 96 106 28 31 66 73 85 94 19 21 45 51 59 66 47 50 125 137 195
216 95 106 120 133 163 180 20 22 73 80 117 129 44 49 91 101 105 116 14 15
57 63 95 106 39 43 87 96 108 118 48 51 70 93 69 128 -1 26 -27 91 -45 113 -4
6 -50 81 -100 168 -51 87 -102 175 -114 195 -11 20 -28 48 -35 62 -8 14 -96
164 -196 333 -100 169 -182 312 -182 317 0 4 -4 10 -8 12 -6 2 -59 90 -171
282 -89 154 -167 286 -186 316 -25 40 -154 261 -196 335 -32 59 -64 94 -97
106 -31 12 -82 10 -107 -5z"/>
</g>
</svg>
